<svg class="img-fluid" id="outputsvg" xmlns="http://www.w3.org/2000/svg" width="1000" height="764" viewBox="0 0 10000 7640"><g id="l7Gs1E36kqDJgegsi0JYkNG" fill="rgb(0,0,0)" style="transform: none;"><g><path id="pcxCGPDfr" d="M3315 7611 c-65 -39 -107 -106 -134 -214 l-19 -72 -123 -6 c-139 -7 -219 -24 -335 -69 -248 -98 -418 -281 -447 -482 -18 -124 9 -174 39 -70 55 193 205 334 414 389 79 21 306 23 390 5 l56 -13 12 -187 c30 -466 119 -978 253 -1458 33 -119 58 -219 55 -221 -3 -3 -53 11 -112 31 -428 148 -706 301 -1037 568 -116 94 -201 148 -234 148 -32 0 -93 -27 -109 -48 -35 -45 -5 -104 122 -240 295 -318 795 -594 1353 -748 68 -19 125 -35 127 -36 1 -2 14 -34 29 -73 39 -98 110 -239 129 -254 25 -21 95 -8 154 28 76 47 78 55 43 156 l-30 85 42 -7 c23 -4 92 -7 152 -8 103 0 113 2 158 28 69 41 170 139 221 216 131 196 112 363 -60 535 -67 68 -212 176 -235 176 -5 0 -9 7 -9 15 0 8 8 15 18 15 26 0 130 64 175 108 45 43 110 173 126 250 23 110 8 238 -40 347 -124 283 -514 588 -941 736 -54 19 -68 28 -68 44 1 53 33 162 66 223 41 75 40 96 -1 112 -46 17 -166 12 -200 -9z m264 -692 c389 -208 686 -511 731 -746 31 -161 -53 -197 -353 -154 -81 12 -177 32 -213 45 -74 27 -171 89 -178 114 -9 29 -55 331 -75 497 -33 265 -35 295 -20 295 7 0 55 -23 108 -51z m142 -1177 c30 -16 135 -84 234 -153 210 -144 364 -288 409 -382 26 -52 27 -57 12 -85 -9 -17 -29 -35 -47 -41 -45 -16 -226 -14 -344 4 -183 28 -160 11 -201 139 -28 89 -105 378 -138 519 -8 35 6 35 75 -1z"></path><path id="p4uWEouIH" d="M4362 7572 c-37 -20 -77 -71 -93 -119 -9 -29 -8 -39 15 -78 73 -123 439 -321 946 -510 85 -32 156 -59 158 -60 1 -1 -9 -26 -23 -56 -46 -101 -51 -231 -12 -322 21 -48 36 -53 90 -29 62 27 81 59 72 117 -10 68 10 146 48 189 l32 36 105 -31 c119 -36 144 -54 188 -138 39 -72 94 -212 87 -219 -7 -8 -5 -11 -84 133 -82 149 -98 168 -140 168 -30 0 -71 -26 -71 -45 0 -6 27 -40 61 -76 123 -136 226 -317 274 -485 28 -98 59 -299 75 -482 20 -243 10 -270 -47 -119 -40 107 -172 522 -207 652 -14 51 -33 108 -44 125 -25 45 -74 60 -149 46 -75 -14 -103 -30 -146 -79 -91 -107 -89 -293 9 -728 24 -106 34 -166 27 -173 -7 -7 -79 34 -130 75 -1 1 -18 76 -37 166 -57 263 -210 742 -269 843 -14 23 -39 56 -57 72 -28 27 -38 30 -93 30 -46 0 -76 -7 -117 -26 -140 -65 -199 -197 -200 -440 0 -181 39 -360 131 -595 l40 -102 -30 -44 c-52 -77 -74 -160 -74 -278 0 -115 16 -189 64 -306 16 -39 40 -81 52 -92 60 -56 223 -72 329 -32 106 40 200 148 249 290 20 57 23 86 23 227 1 90 4 163 7 163 3 0 42 -37 85 -82 73 -76 105 -119 178 -235 32 -52 58 -55 131 -17 94 49 101 72 60 219 -22 76 -56 296 -116 732 -7 51 -10 96 -6 100 28 28 94 -129 241 -577 108 -326 136 -445 177 -725 22 -158 32 -202 46 -213 22 -16 86 -10 164 17 97 32 117 98 99 308 -25 270 -58 718 -54 722 6 6 15 -3 293 -303 127 -137 231 -253 231 -257 0 -4 -21 -18 -47 -29 -85 -38 -189 -109 -216 -147 -66 -96 -84 -223 -48 -339 25 -81 116 -247 183 -333 125 -159 366 -276 599 -288 111 -6 159 6 235 58 78 53 182 158 189 189 3 16 -1 71 -9 122 -22 124 -70 222 -151 305 -53 55 -65 63 -98 63 -21 0 -52 -7 -70 -16 l-32 -17 -95 104 c-52 57 -123 133 -157 168 -35 35 -63 66 -63 68 0 2 28 3 63 3 82 0 249 23 367 50 52 12 107 24 121 27 20 4 48 -12 130 -70 401 -288 794 -481 1053 -519 77 -11 95 -10 152 5 86 22 154 68 240 160 71 76 110 138 99 157 -11 17 -59 11 -161 -21 -94 -29 -106 -30 -224 -26 -133 5 -244 27 -480 94 -217 62 -430 165 -600 291 -41 30 -76 56 -77 56 -1 1 13 32 31 69 112 231 66 528 -119 762 -109 138 -268 252 -420 301 -193 63 -469 34 -701 -75 -88 -41 -145 -87 -190 -152 -28 -40 -28 -41 -9 -56 32 -23 84 -10 171 43 110 68 129 75 215 81 128 9 319 -37 414 -99 113 -74 258 -254 325 -402 51 -111 75 -256 50 -296 -8 -12 -12 -11 -32 6 -13 11 -169 144 -346 295 -314 266 -382 319 -410 319 -23 0 -72 -40 -72 -60 0 -10 21 -41 47 -70 64 -71 562 -506 721 -629 72 -56 55 -73 -94 -96 -54 -8 -161 -17 -238 -21 l-141 -7 -111 129 c-176 206 -536 647 -545 669 -4 11 -31 155 -59 320 -54 320 -70 389 -107 474 -13 30 -22 56 -20 58 2 2 49 -2 103 -9 54 -6 216 -12 359 -12 246 -1 264 0 327 22 86 30 142 80 195 173 59 105 62 172 9 225 -27 27 -42 34 -74 34 -56 0 -88 -29 -133 -123 -49 -102 -67 -120 -137 -143 -47 -16 -88 -19 -237 -19 -178 1 -234 6 -451 46 -101 19 -116 24 -160 61 -94 78 -112 83 -274 84 -142 1 -147 1 -250 39 -334 121 -606 268 -920 500 -69 51 -137 95 -151 98 -16 4 -37 0 -57 -11z m632 -1379 c43 -133 196 -695 196 -720 0 -4 -39 -8 -88 -8 l-87 1 -23 79 c-45 157 -64 298 -65 485 0 185 6 240 28 240 8 0 24 -32 39 -77z m224 -866 c6 -7 18 -64 28 -127 19 -132 15 -276 -10 -357 -34 -109 -121 -199 -205 -210 -39 -5 -44 -3 -79 34 -60 63 -77 129 -77 300 0 108 3 145 14 155 11 11 14 11 18 0 9 -23 66 -84 107 -114 31 -22 50 -28 90 -28 52 0 116 28 116 51 0 6 -17 41 -39 77 -49 85 -111 208 -111 222 0 15 135 13 148 -3z m2034 -678 c106 -88 194 -163 196 -167 1 -4 -12 -12 -30 -17 -18 -6 -34 -17 -36 -26 -2 -9 21 -45 51 -80 112 -133 166 -237 167 -318 0 -108 -73 -108 -255 0 -146 86 -239 188 -321 354 -70 142 -87 268 -48 347 17 33 53 68 71 68 7 0 99 -72 205 -161z"></path><path id="p17iJxuYOS" d="M1233 4704 c-39 -20 -55 -42 -93 -138 -78 -198 -61 -340 106 -847 73 -225 215 -617 310 -859 25 -63 130 -331 234 -596 181 -460 208 -534 197 -534 -38 0 -316 113 -488 199 -467 234 -903 629 -1124 1020 -122 216 -163 360 -151 534 7 103 24 148 74 201 60 63 110 80 226 79 95 -2 103 -3 181 -42 45 -23 89 -41 98 -41 58 0 -11 77 -100 110 -102 39 -181 46 -275 26 -259 -55 -418 -221 -418 -436 0 -281 99 -519 354 -855 211 -279 500 -534 827 -730 182 -110 595 -291 820 -359 58 -17 91 -33 101 -47 12 -19 24 -22 108 -24 74 -2 134 -12 275 -48 99 -25 200 -48 225 -52 25 -4 171 -40 325 -81 673 -175 1013 -304 1179 -446 46 -39 55 -63 37 -97 -12 -22 -3 -37 32 -50 36 -14 65 0 96 45 36 52 34 113 -6 195 -57 116 -130 182 -303 277 -270 147 -620 258 -1405 443 -277 65 -434 106 -442 116 -7 9 -15 36 -19 62 -4 25 -22 98 -41 161 -70 233 -287 925 -393 1250 -169 521 -223 698 -300 995 -17 66 -50 179 -72 250 -57 181 -56 275 3 275 11 0 19 4 19 10 0 36 -143 61 -197 34z"></path><path id="pwjR1Zqbo" d="M4330 4553 c-38 -7 -78 -51 -97 -107 -27 -77 -24 -338 6 -511 27 -156 69 -344 115 -517 21 -81 29 -128 22 -128 -6 0 -31 30 -54 65 -50 74 -108 109 -207 125 -69 11 -161 0 -198 -24 -55 -37 -66 -119 -38 -301 17 -115 19 -149 8 -134 -2 2 -34 56 -72 119 -164 276 -337 515 -397 547 -49 26 -209 25 -262 -2 -116 -59 -114 -175 11 -520 86 -235 229 -593 310 -775 109 -242 164 -391 167 -445 l3 -49 54 -14 c66 -17 113 -6 164 39 42 37 58 87 45 143 -13 57 -196 565 -325 901 -129 335 -178 479 -163 484 13 4 52 -43 156 -188 162 -225 363 -585 657 -1176 126 -254 204 -400 224 -419 l31 -29 38 17 c49 22 109 77 122 112 8 19 7 44 -1 83 -13 66 -110 329 -204 556 -176 420 -305 822 -305 948 0 110 92 -25 290 -429 l158 -320 221 -660 c356 -1068 353 -1058 339 -1153 -2 -14 4 -28 13 -34 24 -15 67 5 128 61 46 42 53 54 62 104 21 122 -43 400 -208 902 -32 99 -34 112 -24 150 7 22 26 60 42 82 16 23 40 74 55 115 26 72 26 74 21 288 -4 178 -10 236 -30 331 -13 63 -23 117 -21 119 8 9 70 -47 119 -109 62 -76 168 -287 209 -415 74 -233 224 -691 300 -915 48 -140 134 -403 192 -583 98 -304 104 -330 93 -361 -25 -69 16 -86 92 -37 84 54 109 96 109 186 0 126 -32 269 -133 595 -110 355 -117 400 -79 461 41 65 60 104 82 171 21 63 22 79 17 260 -4 149 -11 221 -30 318 -14 69 -24 127 -22 129 10 9 59 -34 111 -97 55 -65 112 -173 206 -387 22 -51 54 -153 73 -236 118 -506 299 -1126 479 -1643 74 -210 84 -230 125 -234 27 -3 41 6 101 64 97 94 101 109 55 249 -67 206 -285 914 -329 1073 -157 555 -237 992 -182 992 7 0 45 -48 86 -107 40 -60 94 -135 120 -168 45 -59 47 -63 58 -164 34 -297 142 -669 243 -837 123 -204 333 -387 462 -401 74 -9 167 56 201 139 60 142 -62 550 -230 770 -25 33 -43 62 -41 65 3 2 90 -27 194 -66 103 -38 295 -105 425 -148 l237 -78 0 -70 c1 -80 -8 -127 -46 -241 -30 -93 -27 -119 15 -110 36 9 144 81 209 140 53 48 103 132 103 174 0 20 4 23 23 18 12 -3 72 -17 132 -31 408 -91 672 -96 850 -15 125 56 166 116 173 250 5 110 -11 164 -51 168 -24 3 -42 -10 -120 -90 -82 -83 -99 -96 -157 -116 -36 -12 -96 -27 -135 -34 -93 -17 -426 -17 -587 1 l-126 14 -7 46 c-12 80 -94 396 -140 539 -113 351 -286 561 -539 654 -104 39 -271 49 -378 24 -239 -56 -468 -213 -596 -409 -27 -41 -54 -88 -62 -106 -7 -17 -17 -30 -22 -29 -4 2 -63 86 -131 187 -143 216 -171 243 -257 249 -104 8 -185 -40 -205 -120 -10 -38 -18 -35 -42 15 -31 63 -107 159 -149 187 -32 21 -49 25 -111 25 -71 0 -74 1 -79 25 -23 113 -152 551 -259 880 -159 485 -217 589 -349 625 -87 24 -225 18 -256 -10 -48 -42 -64 -100 -68 -248 -6 -209 27 -430 123 -807 25 -97 45 -178 45 -182 0 -3 -19 1 -42 9 -28 10 -60 13 -90 9 l-47 -7 -6 38 c-16 95 -212 747 -305 1018 -114 329 -186 447 -287 474 -46 12 -189 21 -223 14z m263 -480 c73 -172 166 -442 253 -733 30 -102 76 -249 101 -327 l47 -142 -21 -63 c-14 -42 -23 -101 -28 -177 -5 -104 -9 -132 -18 -120 -9 14 -264 882 -297 1012 -42 167 -79 360 -104 545 -18 126 -20 162 -8 162 4 0 38 -71 75 -157z m934 -265 c59 -134 197 -531 269 -778 25 -85 68 -223 95 -306 l50 -151 -19 -49 c-13 -33 -21 -89 -26 -168 -6 -122 -10 -137 -25 -120 -11 12 -262 854 -300 1009 -69 280 -136 724 -105 692 4 -4 31 -62 61 -129z m2457 -1282 c74 -36 173 -129 231 -216 55 -83 151 -281 200 -414 40 -107 111 -374 102 -382 -9 -9 -241 51 -412 106 -198 64 -476 174 -615 243 -121 60 -118 54 -119 198 -1 70 4 114 19 160 45 148 161 270 304 321 79 29 214 21 290 -16z m-528 -824 c79 -97 147 -222 207 -382 43 -115 101 -329 92 -338 -4 -4 -35 22 -69 58 -91 96 -188 297 -250 516 -50 179 -44 224 20 146z"></path><path id="ptx8uMwlK" d="M2050 4123 c-47 -24 -69 -83 -69 -186 -2 -188 85 -462 328 -1042 49 -115 109 -259 134 -320 79 -193 144 -315 168 -315 27 0 78 26 112 58 54 51 40 110 -173 740 -61 178 -110 330 -110 338 0 38 20 3 60 -103 23 -65 72 -197 107 -293 163 -440 365 -860 457 -949 35 -34 35 -34 83 -21 90 24 121 46 133 91 21 76 -15 251 -101 499 -113 323 -139 404 -156 483 -9 45 -22 85 -27 89 -16 11 -176 -2 -213 -18 -18 -7 -39 -27 -49 -45 -24 -47 -14 -189 19 -286 18 -49 22 -73 14 -73 -12 0 -21 20 -119 270 -70 179 -220 623 -284 844 -30 104 -59 197 -64 207 -13 24 -63 39 -145 45 -55 4 -77 2 -105 -13z"></path></g></g><g id="l2IsNW0Di3jXnSXBydUfldv" fill="rgb(255,255,255)" style="transform: none;"><g><path id="p1ArK3clcd" d="M5052 2411 c2 -76 11 -116 21 -100 7 13 -6 189 -15 189 -6 0 -9 -32 -6 -89z"></path><path id="pvwcImeo9" d="M6000 2123 c0 -48 5 -95 10 -103 7 -10 10 16 10 82 0 54 -4 100 -10 103 -6 4 -10 -26 -10 -82z"></path></g></g></svg>
